<svg width="106" height="80" viewBox="0 0 106 80" fill="none" xmlns="http://www.w3.org/2000/svg">
<path d="M37.289 70.1775C37.7692 70.2313 38.2265 69.9591 38.4081 69.5113C38.5897 69.0635 38.4511 68.5496 38.0691 68.2538C34.0956 65.1768 30.864 62.2965 28.2624 58.7885C25.6686 55.2912 23.6683 51.1248 22.2291 45.4472C22.1104 44.9789 21.6948 44.6468 21.2119 44.6343C17.8564 44.5477 15.4676 45.1987 13.562 46.3123C11.7109 47.394 10.3905 48.8758 9.14716 50.2711L9.10298 50.3206C7.06003 52.6131 5.04925 54.857 0.800287 55.9901C0.315819 56.1193 -0.0156241 56.5654 0.000568134 57.0666C0.0167603 57.5677 0.376312 57.9915 0.86811 58.0892C11.3273 60.166 14.9902 62.395 18.3171 64.4196L18.373 64.4536L18.3731 64.4536C20.2443 65.5923 22.0927 66.7171 24.9285 67.7061C27.7588 68.6931 31.5327 69.5325 37.289 70.1775Z" fill="#FFE494"/>
<path d="M41.1272 66.4413C41.4819 66.7261 41.9771 66.7576 42.365 66.5202C42.7529 66.2828 42.9501 65.8274 42.8579 65.382C40.8533 55.7043 40.984 48.9959 42.0808 43.8626C43.1778 38.7283 45.2539 35.0919 47.3064 31.5066L47.332 31.462C48.9161 28.6949 50.5078 25.9146 51.4884 22.5652C51.5771 22.262 51.5284 21.9351 51.3551 21.6709C51.1877 21.4157 51.0232 21.1642 50.8607 20.9155L50.8607 20.9154C50.8589 20.9127 50.8571 20.91 50.8553 20.9073L50.8552 20.9072L50.7994 20.8217C48.4906 17.2889 46.5369 14.2996 43.0245 12.1356C39.4901 9.95802 34.4996 8.68006 26.2096 8.1686C25.7972 8.14316 25.4065 8.35567 25.2038 8.71573C25.0011 9.07579 25.022 9.52004 25.2577 9.85945C30.0184 16.7165 28.8159 23.0488 27.4329 30.1304L27.4171 30.2116C26.4194 35.3203 25.3435 40.8293 26.796 46.8329C28.265 52.9043 32.2721 59.3312 41.1272 66.4413Z" fill="#FFE494"/>
<path d="M58.6404 0.0326498C58.2938 -0.0546229 57.9265 0.0355475 57.6597 0.273394C57.3929 0.51124 57.2614 0.86584 57.3084 1.22013C58.3651 9.16993 57.8667 14.8834 56.6343 19.4646C55.3987 24.0576 53.4128 27.5716 51.3746 31.1696L51.3523 31.209C49.1507 35.0954 46.8918 39.0829 45.7043 44.4707C44.5112 49.884 44.4127 56.6329 46.3792 66.0896C46.4935 66.639 47.01 67.0088 47.5669 66.94C59.0174 65.525 67.2048 61.0909 72.5771 55.0449C77.9425 49.0067 80.4277 41.4423 80.6254 33.8863C81.018 18.8779 72.3416 3.48269 58.6404 0.0326498Z" fill="#FFE494"/>
<path d="M50.1375 71.036C50.0807 71.5243 50.3614 71.9891 50.82 72.1662C63.0161 76.8758 71.4466 77.4372 77.8705 75.8837C84.258 74.339 88.5045 70.7314 92.3226 67.4877L92.374 67.4441C96.2504 64.1509 99.6216 61.3208 104.442 60.6942C104.893 60.6357 105.258 60.3012 105.356 59.8579C105.454 59.4145 105.264 58.9572 104.88 58.7143C100.51 55.9475 94.8853 54.4392 89.3112 54.4921C83.7358 54.5451 78.1187 56.1625 73.8287 59.7615C68.0249 64.6305 61.6135 68.6375 51.0611 70.0925C50.5741 70.1597 50.1942 70.5477 50.1375 71.036Z" fill="#FFE494"/>
<path d="M36.1167 75.1135C36.6595 74.9874 37.0168 74.4685 36.9408 73.9164C36.8648 73.3644 36.3807 72.9612 35.824 72.9864C27.6703 73.3559 20.9106 69.9378 18.4759 68.7029L18.475 68.7024L18.474 68.7019C18.3411 68.6345 18.218 68.5721 18.1086 68.5173C17.7914 68.3587 17.4165 68.3663 17.106 68.5375C14.8521 69.78 13.9231 71.4313 13.1187 72.8611L13.0996 72.8951C12.2254 74.449 11.4758 75.7678 9.26735 76.7425C8.85787 76.9232 8.60265 77.3382 8.62604 77.7851C8.64943 78.2321 8.94656 78.6181 9.37265 78.7551C17.3282 81.313 22.6838 79.4559 28.56 77.4183L28.6054 77.4025C30.9503 76.5895 33.369 75.7516 36.1167 75.1135Z" fill="#FFE494"/>
<path d="M43.8239 67.9722L45.6711 71.3592L49.4631 72.0693L46.8127 74.8727L47.3091 78.6985L43.8239 77.0441L40.3387 78.6985L40.8352 74.8727L38.1847 72.0693L41.9768 71.3592L43.8239 67.9722Z" fill="#FFE494"/>
</svg>
