<svg width="92" height="69" viewBox="0 0 92 69" fill="currentColor" xmlns="http://www.w3.org/2000/svg">
<path d="M77.8822 5.71982C71.9175 3.02589 65.6229 1.10482 59.1558 0.00471791C59.0971 -0.0060378 59.0364 0.00170435 58.9823 0.026843C58.9283 0.0519817 58.8837 0.0932378 58.8549 0.144749C58.0461 1.56009 57.1504 3.4063 56.5231 4.85753C49.4518 3.81578 42.4167 3.81578 35.4904 4.85753C34.863 3.37412 33.9347 1.56009 33.1223 0.144749C33.0923 0.0943259 33.0475 0.0539888 32.9938 0.0290067C32.9401 0.00402463 32.88 -0.00444062 32.8214 0.00471791C26.2505 1.11825 19.9625 3.06878 14.095 5.71982C14.044 5.74113 14.0009 5.77752 13.9718 5.82395C2.0448 23.357 -1.22264 40.4591 0.380175 57.3491C0.387362 57.4317 0.43462 57.5107 0.499847 57.5611C8.36891 63.2474 15.9916 66.6994 23.4726 68.9876C23.5307 69.0047 23.5928 69.0039 23.6505 68.9853C23.7082 68.9667 23.7587 68.9311 23.7953 68.8834C25.5648 66.5056 27.1423 63.9983 28.4948 61.3616C28.5746 61.2072 28.4984 61.0239 28.3353 60.9629C25.8331 60.029 23.4506 58.8902 21.1587 57.5972C20.9774 57.493 20.9629 57.2379 21.1298 57.1157C21.6134 56.7602 22.0886 56.3937 22.5551 56.0165C22.596 55.9833 22.6455 55.9621 22.698 55.9551C22.7506 55.9481 22.8041 55.9556 22.8525 55.9769C37.9089 62.741 54.2092 62.741 69.0879 55.9769C69.1364 55.9543 69.1904 55.9456 69.2437 55.952C69.297 55.9583 69.3473 55.9794 69.3889 56.0128C69.8559 56.3919 70.3323 56.7596 70.8178 57.1156C70.9845 57.2377 70.9735 57.4929 70.7924 57.597C68.5005 58.9153 66.118 60.0288 63.6123 60.9592C63.5737 60.9737 63.5387 60.996 63.5095 61.0248C63.4804 61.0535 63.4577 61.088 63.443 61.126C63.4283 61.164 63.4219 61.2045 63.4242 61.2451C63.4265 61.2857 63.4375 61.3253 63.4565 61.3614C64.8381 63.9944 66.4156 66.5017 68.1525 68.8797C68.225 68.9803 68.3555 69.0235 68.4752 68.9874C75.9924 66.6994 83.6151 63.2472 91.4842 57.5609C91.518 57.5366 91.5462 57.5054 91.5669 57.4695C91.5875 57.4336 91.6001 57.3937 91.6039 57.3527C93.5222 37.826 88.3909 20.864 78.0015 5.82749C77.9761 5.77872 77.9337 5.74052 77.8822 5.71982ZM30.7436 47.0648C26.2106 47.0648 22.4755 42.97 22.4755 37.9409C22.4755 32.912 26.138 28.8169 30.7436 28.8169C35.3851 28.8169 39.0842 32.9479 39.0116 37.9409C39.0116 42.97 35.3488 47.0648 30.7436 47.0648ZM61.3134 47.0648C56.7806 47.0648 53.0454 42.97 53.0454 37.9409C53.0454 32.912 56.708 28.8169 61.3134 28.8169C65.955 28.8169 69.6539 32.9479 69.5815 37.9409C69.5815 42.97 65.9552 47.0648 61.3134 47.0648Z" fill="#FFE494"/>
</svg>
