<svg width="82" height="80" viewBox="0 0 82 80" fill="currentColor" xmlns="http://www.w3.org/2000/svg">
<path d="M41 0C35.6158 0 30.2843 1.06032 25.31 3.12041C20.3356 5.18051 15.8158 8.20004 12.0086 12.0066C4.31963 19.6943 0 30.121 0 40.9931C0 59.112 11.767 74.4844 28.044 79.9365C30.094 80.2645 30.75 78.9937 30.75 77.8869V70.959C19.393 73.4186 16.974 65.4659 16.974 65.4659C15.088 60.7108 12.423 59.44 12.423 59.44C8.692 56.8984 12.71 56.9804 12.71 56.9804C16.81 57.2673 18.983 61.2027 18.983 61.2027C22.55 67.4336 28.577 65.5889 30.914 64.6051C31.283 61.9405 32.349 60.1368 33.497 59.112C24.395 58.0872 14.842 54.5618 14.842 38.9434C14.842 34.3932 16.4 30.7448 19.065 27.8343C18.655 26.8095 17.22 22.5462 19.475 17.0121C19.475 17.0121 22.919 15.9053 30.75 21.1934C33.989 20.2916 37.515 19.8407 41 19.8407C44.485 19.8407 48.011 20.2916 51.25 21.1934C59.081 15.9053 62.525 17.0121 62.525 17.0121C64.78 22.5462 63.345 26.8095 62.935 27.8343C65.6 30.7448 67.158 34.3932 67.158 38.9434C67.158 54.6028 57.564 58.0462 48.421 59.071C49.897 60.3418 51.25 62.8424 51.25 66.6547V77.8869C51.25 78.9937 51.906 80.3054 53.997 79.9365C70.274 74.4434 82 59.112 82 40.9931C82 35.6098 80.9395 30.2792 78.8791 25.3057C76.8186 20.3322 73.7986 15.8132 69.9914 12.0066C66.1842 8.20004 61.6644 5.18051 56.69 3.12041C51.7157 1.06032 46.3842 0 41 0Z" fill="#FFE494"/>
</svg>
