<svg width="80" height="80" viewBox="0 0 80 80" fill="currentColor" xmlns="http://www.w3.org/2000/svg">
<path d="M71.1111 35.5556V26.6667L35.5556 26.6667V8.88889L26.6667 8.88889V26.6667H8.88889L8.88889 35.5556H26.6667L26.6667 71.1111H35.5556V35.5556H71.1111ZM71.1111 0C73.3333 0 75.5556 0.888888 77.2889 2.71111C79.1111 4.44444 80 6.66667 80 8.88889V71.1111C80 73.3333 79.1111 75.5556 77.2889 77.2889C75.5556 79.1111 73.3333 80 71.1111 80H8.88889C6.66667 80 4.44444 79.1111 2.71111 77.2889C0.888888 75.5556 0 73.3333 0 71.1111L0 8.88889C0 6.66667 0.888888 4.44444 2.71111 2.71111C4.44444 0.888888 6.66667 0 8.88889 0L71.1111 0Z" fill="#FFE494"/>
</svg>
