<svg width="94" height="66" viewBox="0 0 94 66" fill="currentColor" xmlns="http://www.w3.org/2000/svg">
<path d="M37.6 45.4071C37.6 46.1778 38.4349 46.6588 39.1016 46.2723L60.5009 33.8651C61.1654 33.4798 61.1654 32.5202 60.5009 32.1349L39.1016 19.7277C38.4349 19.3412 37.6 19.8222 37.6 20.5929V45.4071ZM91.932 10.23C92.543 12.4457 92.966 15.4157 93.248 19.1871C93.577 22.9586 93.718 26.2114 93.718 29.04L94 33C94 43.3243 93.248 50.9143 91.932 55.77C90.757 60.0129 88.031 62.7471 83.801 63.9257C81.592 64.5386 77.55 64.9629 71.346 65.2457C65.236 65.5757 59.643 65.7171 54.473 65.7171L47 66C27.307 66 15.04 65.2457 10.199 63.9257C5.969 62.7471 3.243 60.0129 2.068 55.77C1.457 53.5543 1.034 50.5843 0.752 46.8129C0.423 43.0414 0.282 39.7886 0.282 36.96L0 33C0 22.6757 0.752 15.0857 2.068 10.23C3.243 5.98714 5.969 3.25286 10.199 2.07429C12.408 1.46143 16.45 1.03714 22.654 0.754285C28.764 0.424285 34.357 0.282857 39.527 0.282857L47 0C66.693 0 78.96 0.754286 83.801 2.07429C88.031 3.25286 90.757 5.98714 91.932 10.23Z" fill="#FFE494"/>
</svg>
