<svg width="190" height="160" viewBox="0 0 190 160" fill="none" xmlns="http://www.w3.org/2000/svg">
<mask id="mask0_3988_195" style="mask-type:alpha" maskUnits="userSpaceOnUse" x="0" y="0" width="176" height="160">
<path fill-rule="evenodd" clip-rule="evenodd" d="M100.785 81.6205C96.6318 58.5989 108.117 53.0466 123.702 45.5126C138.861 38.1843 157.9 28.9809 170.197 0.000976562C177.861 35.4493 178.999 75.9502 163.261 107.481L155.198 82.6669L144.626 115.204H110.415L138.092 135.313L136.818 139.236C123.663 148.986 106.585 156.031 84.7403 159.229C109.504 129.183 107.232 116.796 101.741 86.8601L101.74 86.8534C101.43 85.1669 101.111 83.4247 100.785 81.6205ZM0.156006 65.2268C41.1402 67.1453 76.5435 114.059 80.9036 157.659C134.968 95.9213 66.0794 37.4972 0.156006 65.2268Z" fill="#D9D9D9"/>
</mask>
<g mask="url(#mask0_3988_195)">
<path d="M232.632 -34.5303H-34.5497V203.351H232.632V-34.5303Z" fill="url(#paint0_linear_3988_195)"/>
</g>
<path d="M155.165 93.8247L163.249 118.639H189.41L168.246 133.974L176.33 158.788L155.165 143.453L134.001 158.788L142.085 133.974L120.921 118.639H147.081L155.165 93.8247Z" fill="#FFDF7D"/>
<defs>
<linearGradient id="paint0_linear_3988_195" x1="-19.7257" y1="181.377" x2="184.672" y2="75.5165" gradientUnits="userSpaceOnUse">
<stop stop-color="#4690FF"/>
<stop offset="0.888003" stop-color="#F7284D"/>
</linearGradient>
</defs>
</svg>
