<svg width="440" height="102" viewBox="0 0 440 102" fill="none" xmlns="http://www.w3.org/2000/svg">
<path d="M41.9 100L0.0399999 1.99999H30L65.28 86.84H47.64L83.76 1.99999H111.2L69.2 100H41.9ZM116.937 100V1.99999H139.757L193.797 67.24H183.017V1.99999H210.177V100H187.357L133.317 34.76H144.097V100H116.937ZM396.988 101.96C389.241 101.96 382.055 100.747 375.428 98.32C368.895 95.8 363.201 92.2533 358.348 87.68C353.588 83.1067 349.855 77.74 347.148 71.58C344.441 65.3267 343.088 58.4667 343.088 51C343.088 43.5333 344.441 36.72 347.148 30.56C349.855 24.3067 353.588 18.8933 358.348 14.32C363.201 9.74666 368.895 6.24666 375.428 3.81999C382.055 1.29999 389.241 0.0399935 396.988 0.0399935C406.041 0.0399935 414.115 1.62666 421.208 4.8C428.395 7.97333 434.368 12.5467 439.128 18.52L421.488 34.48C418.315 30.7467 414.815 27.9 410.988 25.94C407.255 23.98 403.055 23 398.388 23C394.375 23 390.688 23.6533 387.328 24.96C383.968 26.2667 381.075 28.18 378.648 30.7C376.315 33.1267 374.448 36.0667 373.048 39.52C371.741 42.9733 371.088 46.8 371.088 51C371.088 55.2 371.741 59.0267 373.048 62.48C374.448 65.9333 376.315 68.92 378.648 71.44C381.075 73.8667 383.968 75.7333 387.328 77.04C390.688 78.3467 394.375 79 398.388 79C403.055 79 407.255 78.02 410.988 76.06C414.815 74.1 418.315 71.2533 421.488 67.52L439.128 83.48C434.368 89.36 428.395 93.9333 421.208 97.2C414.115 100.373 406.041 101.96 396.988 101.96Z" fill="white"/>
<path d="M279.15 101.96C271.31 101.96 264.076 100.7 257.45 98.18C250.823 95.66 245.036 92.1133 240.09 87.54C235.236 82.8733 231.456 77.46 228.75 71.3C226.043 65.14 224.69 58.3733 224.69 51C224.69 43.6267 226.043 36.86 228.75 30.7C231.456 24.54 235.236 19.1733 240.09 14.6C245.036 9.93333 250.823 6.34 257.45 3.81999C264.076 1.29999 271.31 0.0399935 279.15 0.0399935C287.083 0.0399935 294.316 1.29999 300.85 3.81999C307.476 6.34 313.216 9.93333 318.07 14.6C322.923 19.1733 326.703 24.54 329.41 30.7C332.21 36.86 333.61 43.6267 333.61 51C333.61 58.3733 332.21 65.1867 329.41 71.44C326.703 77.6 322.923 82.9667 318.07 87.54C313.216 92.1133 307.476 95.66 300.85 98.18C294.316 100.7 287.083 101.96 279.15 101.96ZM279.15 79C282.883 79 286.336 78.3467 289.51 77.04C292.776 75.7333 295.576 73.8667 297.91 71.44C300.336 68.92 302.203 65.9333 303.51 62.48C304.91 59.0267 305.61 55.2 305.61 51C305.61 46.7067 304.91 42.88 303.51 39.52C302.203 36.0667 300.336 33.1267 297.91 30.7C295.576 28.18 292.776 26.2667 289.51 24.96C286.336 23.6533 282.883 23 279.15 23C275.416 23 271.916 23.6533 268.65 24.96C265.476 26.2667 262.676 28.18 260.25 30.7C257.916 33.1267 256.05 36.0667 254.65 39.52C253.343 42.88 252.69 46.7067 252.69 51C252.69 55.2 253.343 59.0267 254.65 62.48C256.05 65.9333 257.916 68.92 260.25 71.44C262.676 73.8667 265.476 75.7333 268.65 77.04C271.916 78.3467 275.416 79 279.15 79Z" fill="#FFE494"/>
</svg>
